<?xml version="1.0" encoding="utf-8"?>
<!-- Generator: Adobe Illustrator 18.1.1, SVG Export Plug-In . SVG Version: 6.00 Build 0)  -->
<svg version="1.1" id="Layer_1" xmlns="http://www.w3.org/2000/svg" xmlns:xlink="http://www.w3.org/1999/xlink" x="0px" y="0px"
	 viewBox="0 0 501 320" enable-background="new 0 0 501 320" xml:space="preserve">
<text transform="matrix(1 0 0 1 57.6665 60)" font-family="'MyriadPro-Bold'" font-size="12">Administration</text>
<g>
	<text transform="matrix(1 0 0 1 59 83.3335)" fill="#50719A" font-family="'MyriadPro-Regular'" font-size="12">1.1  Administration générale</text>
</g>
<g>
	<text transform="matrix(1 0 0 1 58.6665 106)" fill="#50719A" font-family="'MyriadPro-Regular'" font-size="12">1.2  Gestion des biens immobiliers</text>
</g>
<g>
	<text transform="matrix(1 0 0 1 320.333 106.9998)" fill="#50719A" font-family="'MyriadPro-Regular'" font-size="12">Fonction</text>
</g>
<g>
	<text transform="matrix(1 0 0 1 58.6665 129.3333)" fill="#50719A" font-family="'MyriadPro-Regular'" font-size="12">1.3  Gestion financière</text>
</g>
<g>
	<text transform="matrix(1 0 0 1 320.333 129.3335)" fill="#50719A" font-family="'MyriadPro-Regular'" font-size="12">Fonction</text>
</g>
<text transform="matrix(1 0 0 1 67.6665 152)" fill="#C0504D" font-family="'MyriadPro-Regular'" font-size="12">       .1 Planification</text>
<g>
	<text transform="matrix(1 0 0 1 320 152)" fill="#C0504D" font-family="'MyriadPro-Regular'" font-size="12">Sous-fonction </text>
</g>
<text transform="matrix(1 0 0 1 84.6665 175.333)" fill="#C0504D" font-family="'MyriadPro-Regular'" font-size="12">. 2 Budgétisation</text>
<g>
	<text transform="matrix(1 0 0 1 320.333 176)" fill="#C0504D" font-family="'MyriadPro-Regular'" font-size="12">Sous-fonction </text>
</g>
<text transform="matrix(1 0 0 1 119.6665 198.333)" fill="#76923C" font-family="'MyriadPro-Regular'" font-size="12">.0 Politiques</text>
<text transform="matrix(1 0 0 1 100.3335 222)" fill="#76923C" font-family="'MyriadPro-Regular'" font-size="12">.1 Surveillance</text>
<g>
	<text transform="matrix(1 0 0 1 320 222.667)" fill="#76923C" font-family="'MyriadPro-Regular'" font-size="12">Activité</text>
</g>
<text transform="matrix(1 0 0 1 120.3335 245.0003)" fill="#E36C0A" font-family="'MyriadPro-Regular'" font-size="12">.1 Vérification des écarts</text>
<g>
	<text transform="matrix(1 0 0 1 320 245.333)" fill="#E36C0A" font-family="'MyriadPro-Regular'" font-size="12">Sous-activité</text>
</g>
<text transform="matrix(1 0 0 1 133.333 267.667)" font-family="'MyriadPro-Regular'" font-size="12">Exercice financier 2015-2016</text>
<text transform="matrix(1 0 0 1 320 268)" font-family="'MyriadPro-Regular'" font-size="12">Objet et produit livrable</text>
<rect x="33.667" y="35" fill="none" stroke="#000000" stroke-width="0.9158" stroke-miterlimit="10" width="429.333" height="250"/>
<g>
	<g>
		<line fill="none" stroke="#000000" stroke-miterlimit="10" x1="312" y1="102.5" x2="241" y2="102.5"/>
		<g>
			<polygon points="242.639,100.046 243.048,100.486 240.881,102.499 243.048,104.514 242.639,104.953 240,102.499 			"/>
		</g>
	</g>
</g>
<g>
	<g>
		<line fill="none" stroke="#000000" stroke-miterlimit="10" x1="180" y1="125.5" x2="312" y2="125.5"/>
		<g>
			<polygon points="181.639,127.954 182.048,127.514 179.881,125.501 182.048,123.486 181.639,123.047 179,125.501 			"/>
		</g>
	</g>
</g>
<g>
	<g>
		<line fill="none" stroke="#000000" stroke-miterlimit="10" x1="177" y1="148.5" x2="312" y2="148.5"/>
		<g>
			<polygon points="178.639,150.954 179.048,150.514 176.881,148.501 179.048,146.486 178.639,146.047 176,148.501 			"/>
		</g>
	</g>
</g>
<g>
	<g>
		<line fill="none" stroke="#000000" stroke-miterlimit="10" x1="187" y1="172.5" x2="312" y2="172.5"/>
		<g>
			<polygon points="188.639,174.954 189.048,174.514 186.881,172.501 189.048,170.486 188.639,170.047 186,172.501 			"/>
		</g>
	</g>
</g>
<g>
	<g>
		<line fill="none" stroke="#000000" stroke-miterlimit="10" x1="187" y1="218.5" x2="312" y2="218.5"/>
		<g>
			<polygon points="188.639,220.954 189.048,220.514 186.881,218.501 189.048,216.486 188.639,216.047 186,218.501 			"/>
		</g>
	</g>
</g>
<g>
	<g>
		<line fill="none" stroke="#000000" stroke-miterlimit="10" x1="250" y1="241.5" x2="312" y2="241.5"/>
		<g>
			<polygon points="251.639,243.954 252.048,243.514 249.881,241.501 252.048,239.486 251.639,239.047 249,241.501 			"/>
		</g>
	</g>
</g>
<g>
	<g>
		<line fill="none" stroke="#000000" stroke-miterlimit="10" x1="290" y1="263.5" x2="312" y2="263.5"/>
		<g>
			<polygon points="291.639,265.954 292.048,265.514 289.881,263.501 292.048,261.486 291.639,261.047 289,263.501 			"/>
		</g>
	</g>
</g>
</svg>
