<?xml version="1.0" encoding="utf-8"?>
<!-- Generator: Adobe Illustrator 18.1.1, SVG Export Plug-In . SVG Version: 6.00 Build 0)  -->
<svg version="1.1" xmlns="http://www.w3.org/2000/svg" xmlns:xlink="http://www.w3.org/1999/xlink" x="0px" y="0px"
	 viewBox="0 0 692 376" enable-background="new 0 0 692 376" xml:space="preserve">
<g id="Layer_1">
	<text transform="matrix(1 0 0 1 85 30)" font-family="'MyriadPro-Bold'" font-size="13">Par sujet</text>
	<text transform="matrix(1 0 0 1 422.3333 30)" font-family="'MyriadPro-Bold'" font-size="13">Selon la fonction</text>
	<text transform="matrix(1 0 0 1 55 87)" font-family="'MyriadPro-Bold'" font-size="13">Immeubles et sites</text>
	<text transform="matrix(1 0 0 1 68 149)" font-family="'MyriadPro-Regular'" font-size="13">INSTALLATIONS</text>
	<text transform="matrix(1 0 0 1 71 211)" font-family="'MyriadPro-Regular'" font-size="13">Jeanne Mance</text>
	<text transform="matrix(1 0 0 1 543 333)" font-family="'MyriadPro-Regular'" font-size="13">Jeanne Mance</text>
	<text transform="matrix(1 0 0 1 543 272)" font-family="'MyriadPro-Regular'" font-size="13">Jeanne Mance</text>
	<text transform="matrix(1 0 0 1 543 210.5)" font-family="'MyriadPro-Regular'" font-size="13">Jeanne Mance</text>
	<text transform="matrix(1 0 0 1 543 148.5)" font-family="'MyriadPro-Regular'" font-size="13">Jeanne Mance</text>
	<text transform="matrix(1 0 0 1 76.4979 274.3336)"><tspan x="0" y="0" font-family="'MyriadPro-Regular'" font-size="13">Acquisitions</tspan><tspan x="-2" y="21" font-family="'MyriadPro-Regular'" font-size="13">Construction</tspan><tspan x="2.5" y="42" font-family="'MyriadPro-Regular'" font-size="13">Disposition</tspan><tspan x="-4.1" y="63" font-family="'MyriadPro-Regular'" font-size="13">Entretien, etc.</tspan></text>
	<text transform="matrix(1 0 0 1 312 148)" font-family="'MyriadPro-Regular'" font-size="13">ACQUISITION</text>
	<text transform="matrix(1 0 0 1 304 211)" font-family="'MyriadPro-Regular'" font-size="13">CONSTRUCTION</text>
	<text transform="matrix(1 0 0 1 312 272)" font-family="'MyriadPro-Regular'" font-size="13">DISPOSITION</text>
	<text transform="matrix(1 0 0 1 318 333)" font-family="'MyriadPro-Regular'" font-size="13">ENTRETIEN</text>
	<text transform="matrix(1 0 0 1 297 87)" font-family="'MyriadPro-Bold'" font-size="13">Biens immobiliers</text>
	<g>
		<polygon points="113.2,117 110.3,122.1 107.5,117 		"/>
		<line fill="none" stroke="#000000" stroke-miterlimit="10" x1="110.5" y1="118" x2="110.5" y2="106"/>
	</g>
	<g>
		<polygon points="113.2,179 110.3,184.1 107.5,179 		"/>
		<line fill="none" stroke="#000000" stroke-miterlimit="10" x1="110.5" y1="180" x2="110.5" y2="168"/>
	</g>
	<g>
		<polygon points="112.2,241 109.3,246.1 106.5,241 		"/>
		<line fill="none" stroke="#000000" stroke-miterlimit="10" x1="109.5" y1="242" x2="109.5" y2="230"/>
	</g>
	<g>
		<polygon points="259,327.2 264.1,330 259,332.9 		"/>
		<line fill="none" stroke="#000000" stroke-miterlimit="10" x1="260" y1="329.5" x2="248" y2="329.5"/>
	</g>
	<g>
		<polygon points="259,265.2 264.1,268 259,270.9 		"/>
		<line fill="none" stroke="#000000" stroke-miterlimit="10" x1="260" y1="267.5" x2="248" y2="267.5"/>
	</g>
	<g>
		<polygon points="259,205.2 264.1,208 259,210.9 		"/>
		<line fill="none" stroke="#000000" stroke-miterlimit="10" x1="260" y1="207.5" x2="248" y2="207.5"/>
	</g>
	<g>
		<polygon points="259,140.2 264.1,143 259,145.9 		"/>
		<line fill="none" stroke="#000000" stroke-miterlimit="10" x1="260" y1="142.5" x2="248" y2="142.5"/>
	</g>
	<line fill="none" stroke="#000000" stroke-miterlimit="10" x1="264" y1="83.5" x2="248" y2="83.5"/>
	<line fill="none" stroke="#000000" stroke-miterlimit="10" x1="247.5" y1="83" x2="247.5" y2="330"/>
	<g>
		<g>
			<polygon points="492,326.2 497.1,329 492,331.9 			"/>
			<line fill="none" stroke="#000000" stroke-miterlimit="10" x1="493" y1="328.5" x2="481" y2="328.5"/>
		</g>
		<line fill="none" stroke="#000000" stroke-miterlimit="10" x1="482" y1="328.5" x2="433" y2="328.5"/>
	</g>
	<g>
		<g>
			<polygon points="492,265.2 497.1,268 492,270.9 			"/>
			<line fill="none" stroke="#000000" stroke-miterlimit="10" x1="493" y1="267.5" x2="481" y2="267.5"/>
		</g>
		<line fill="none" stroke="#000000" stroke-miterlimit="10" x1="482" y1="267.5" x2="433" y2="267.5"/>
	</g>
	<g>
		<g>
			<polygon points="492,204.2 497.1,207 492,209.9 			"/>
			<line fill="none" stroke="#000000" stroke-miterlimit="10" x1="493" y1="206.5" x2="481" y2="206.5"/>
		</g>
		<line fill="none" stroke="#000000" stroke-miterlimit="10" x1="482" y1="206.5" x2="433" y2="206.5"/>
	</g>
	<g>
		<g>
			<polygon points="492,142.2 497.1,145 492,147.9 			"/>
			<line fill="none" stroke="#000000" stroke-miterlimit="10" x1="493" y1="144.5" x2="481" y2="144.5"/>
		</g>
		<line fill="none" stroke="#000000" stroke-miterlimit="10" x1="482" y1="144.5" x2="433" y2="144.5"/>
	</g>
</g>
<g id="Layer_2">
	<rect x="27" y="61" fill="none" stroke="#365B76" stroke-width="0.9324" stroke-miterlimit="10" width="166.9" height="44"/>
	<rect x="27" y="123" fill="none" stroke="#365B76" stroke-width="0.9324" stroke-miterlimit="10" width="166.9" height="44"/>
	<rect x="27" y="185" fill="none" stroke="#365B76" stroke-width="0.9324" stroke-miterlimit="10" width="166.9" height="44"/>
	<rect x="264.9" y="246" fill="none" stroke="#365B76" stroke-width="0.9324" stroke-miterlimit="10" width="166.9" height="44"/>
	<rect x="264.9" y="185" fill="none" stroke="#365B76" stroke-width="0.9324" stroke-miterlimit="10" width="166.9" height="44"/>
	<rect x="264.9" y="123" fill="none" stroke="#365B76" stroke-width="0.9324" stroke-miterlimit="10" width="166.9" height="44"/>
	<rect x="264.9" y="61" fill="none" stroke="#365B76" stroke-width="0.9324" stroke-miterlimit="10" width="166.9" height="44"/>
	<rect x="498.4" y="122" fill="none" stroke="#365B76" stroke-width="0.9324" stroke-miterlimit="10" width="166.9" height="45"/>
	<rect x="498.4" y="185" fill="none" stroke="#365B76" stroke-width="0.9324" stroke-miterlimit="10" width="166.9" height="44"/>
	<rect x="498.4" y="246" fill="none" stroke="#365B76" stroke-width="0.9324" stroke-miterlimit="10" width="166.9" height="44"/>
	<rect x="498.4" y="308" fill="none" stroke="#365B76" stroke-width="0.9324" stroke-miterlimit="10" width="166.9" height="44"/>
	<rect x="264.9" y="308" fill="none" stroke="#365B76" stroke-width="0.9324" stroke-miterlimit="10" width="166.9" height="44"/>
	<rect x="27" y="247" fill="none" stroke="#365B76" stroke-width="0.9324" stroke-miterlimit="10" width="166.9" height="109"/>
	<line fill="none" x1="110" y1="-7962" x2="110" y2="8421"/>
</g>
</svg>
