<?xml version="1.0" encoding="utf-8"?>
<!-- Generator: Adobe Illustrator 18.1.1, SVG Export Plug-In . SVG Version: 6.00 Build 0)  -->
<svg version="1.1" id="Layer_1" xmlns="http://www.w3.org/2000/svg" xmlns:xlink="http://www.w3.org/1999/xlink" x="0px" y="0px"
	 viewBox="0 0 501 320" enable-background="new 0 0 501 320" xml:space="preserve">
<text transform="matrix(1 0 0 1 69.6665 60)" font-family="'MyriadPro-Bold'" font-size="12">Administration</text>
<g>
	<text transform="matrix(1 0 0 1 71 83.3335)" fill="#50719A" font-family="'MyriadPro-Regular'" font-size="12">1.1  General administration</text>
</g>
<g>
	<text transform="matrix(1 0 0 1 70.6665 106)" fill="#50719A" font-family="'MyriadPro-Regular'" font-size="12">1.2  Real property management</text>
</g>
<g>
	<text transform="matrix(1 0 0 1 333.333 106.9998)" fill="#50719A" font-family="'MyriadPro-Regular'" font-size="12">Function</text>
</g>
<g>
	<text transform="matrix(1 0 0 1 70.6665 129.3333)" fill="#50719A" font-family="'MyriadPro-Regular'" font-size="12">1.3  Financial management</text>
</g>
<g>
	<text transform="matrix(1 0 0 1 332.333 129.3335)" fill="#50719A" font-family="'MyriadPro-Regular'" font-size="12">Function</text>
</g>
<text transform="matrix(1 0 0 1 79.6665 152)" fill="#C0504D" font-family="'MyriadPro-Regular'" font-size="12">       .1 Planning </text>
<g>
	<text transform="matrix(1 0 0 1 332 152)" fill="#C0504D" font-family="'MyriadPro-Regular'" font-size="12">Sub-function</text>
</g>
<text transform="matrix(1 0 0 1 96.6665 175.333)" fill="#C0504D" font-family="'MyriadPro-Regular'" font-size="12">. 2 Budgeting </text>
<g>
	<text transform="matrix(1 0 0 1 332.333 176)" fill="#C0504D" font-family="'MyriadPro-Regular'" font-size="12">Sub-function</text>
</g>
<text transform="matrix(1 0 0 1 131.6665 198.333)" fill="#76923C" font-family="'MyriadPro-Regular'" font-size="12">.0 Policies</text>
<text transform="matrix(1 0 0 1 133.3335 222)" fill="#76923C" font-family="'MyriadPro-Regular'" font-size="12">.1 Monitoring</text>
<g>
	<text transform="matrix(1 0 0 1 332 222.667)" fill="#76923C" font-family="'MyriadPro-Regular'" font-size="12">Activity</text>
</g>
<text transform="matrix(1 0 0 1 158.3335 245.0003)" fill="#E36C0A" font-family="'MyriadPro-Regular'" font-size="12">.1 Checking discrepancies</text>
<g>
	<text transform="matrix(1 0 0 1 332 245.333)" fill="#E36C0A" font-family="'MyriadPro-Regular'" font-size="12">Sub-activity</text>
</g>
<text transform="matrix(1 0 0 1 177.333 267.667)" font-family="'MyriadPro-Regular'" font-size="12">F/Y 2015-2016</text>
<text transform="matrix(1 0 0 1 332 268)" font-family="'MyriadPro-Regular'" font-size="12">Object/deliverable</text>
<rect x="33.667" y="35" fill="none" stroke="#000000" stroke-width="0.9158" stroke-miterlimit="10" width="429.333" height="250"/>
<g>
	<g>
		<line fill="none" stroke="#000000" stroke-miterlimit="10" x1="255" y1="103.5" x2="319" y2="103.5"/>
		<g>
			<polygon points="256.988,105.954 257.397,105.514 255.23,103.501 257.397,101.486 256.988,101.047 254.349,103.501 			"/>
		</g>
	</g>
</g>
<g>
	<g>
		<line fill="none" stroke="#000000" stroke-miterlimit="10" x1="232" y1="125.5" x2="319" y2="125.5"/>
		<g>
			<polygon points="233.639,127.954 234.048,127.514 231.881,125.501 234.048,123.486 233.639,123.047 231,125.501 			"/>
		</g>
	</g>
</g>
<g>
	<g>
		<line fill="none" stroke="#000000" stroke-miterlimit="10" x1="179" y1="149.5" x2="319" y2="149.5"/>
		<g>
			<polygon points="180.639,151.954 181.048,151.514 178.881,149.501 181.048,147.486 180.639,147.047 178,149.501 			"/>
		</g>
	</g>
</g>
<g>
	<g>
		<line fill="none" stroke="#000000" stroke-miterlimit="10" x1="183" y1="175.5" x2="319" y2="175.5"/>
		<g>
			<polygon points="184.639,177.954 185.048,177.514 182.881,175.501 185.048,173.486 184.639,173.047 182,175.501 			"/>
		</g>
	</g>
</g>
<g>
	<g>
		<line fill="none" stroke="#000000" stroke-miterlimit="10" x1="221" y1="219.5" x2="319" y2="219.5"/>
		<g>
			<polygon points="222.639,221.954 223.048,221.514 220.881,219.501 223.048,217.486 222.639,217.047 220,219.501 			"/>
		</g>
	</g>
</g>
<g>
	<g>
		<line fill="none" stroke="#000000" stroke-miterlimit="10" x1="303" y1="241.5" x2="319" y2="241.5"/>
		<g>
			<polygon points="304.639,243.954 305.048,243.514 302.881,241.501 305.048,239.486 304.639,239.047 302,241.501 			"/>
		</g>
	</g>
</g>
<g>
	<g>
		<line fill="none" stroke="#000000" stroke-miterlimit="10" x1="263" y1="264.5" x2="319" y2="264.5"/>
		<g>
			<polygon points="264.639,266.954 265.048,266.514 262.881,264.501 265.048,262.486 264.639,262.047 262,264.501 			"/>
		</g>
	</g>
</g>
</svg>
